/* XPM */
static char * cle_xpm[] = {
"64 64 76 1",
" 	c #FFFFFF",
".	c #BFBFBF",
"+	c #4C4C4C",
"@	c #161616",
"#	c #393939",
"$	c #606060",
"%	c #101010",
"&	c #000000",
"*	c #060606",
"=	c #989898",
"-	c #0B0B0B",
";	c #0D0D0D",
">	c #7F7F7F",
",	c #070707",
"'	c #686868",
")	c #8B8B8B",
"!	c #4E4E4E",
"~	c #111111",
"{	c #2E2E2E",
"]	c #E6E6E6",
"^	c #404040",
"/	c #9A9A9A",
"(	c #1A1A1A",
"_	c #191919",
":	c #737373",
"<	c #0E0E0E",
"[	c #1C1C1C",
"}	c #454545",
"|	c #050505",
"1	c #030303",
"2	c #0A0A0A",
"3	c #292929",
"4	c #414141",
"5	c #484848",
"6	c #565656",
"7	c #1E1E1E",
"8	c #121212",
"9	c #131313",
"0	c #333333",
"a	c #3F3F3F",
"b	c #3C3C3C",
"c	c #595959",
"d	c #656565",
"e	c #0C0C0C",
"f	c #272727",
"g	c #0F0F0F",
"h	c #020202",
"i	c #5F5F5F",
"j	c #010101",
"k	c #DFDFDF",
"l	c #777777",
"m	c #343434",
"n	c #2D2D2D",
"o	c #424242",
"p	c #9F9F9F",
"q	c #202020",
"r	c #080808",
"s	c #545454",
"t	c #090909",
"u	c #363636",
"v	c #303030",
"w	c #8F8F8F",
"x	c #222222",
"y	c #323232",
"z	c #040404",
"A	c #353535",
"B	c #666666",
"C	c #4D4D4D",
"D	c #ACACAC",
"E	c #CDCDCD",
"F	c #242424",
"G	c #1F1F1F",
"H	c #808080",
"I	c #B5B5B5",
"J	c #2B2B2B",
"K	c #474747",
"                                                                ",
"                                                                ",
"                                                                ",
"                                                                ",
"                                                                ",
"                                                                ",
"                                                                ",
"                                                                ",
"                                                                ",
"                                                                ",
"                                                                ",
"                                                                ",
"                                                                ",
"                                                                ",
"                        .+@@#$.                                 ",
"                       .%&&&&&*=                                ",
"                    .+@-&&&&&&&;.                               ",
"                   >&&&&&,')!~&&{]                              ",
"                  .&&&&&&^   /&&&(.                             ",
"                  +&&_)):.   ](&&&<:]                           ",
"                  [&&}        .#|&&&(.                          ",
"                  +&&1.         .%&&&+                          ",
"                  .2&&$          .3&&@                          ",
"                   4&&5           )&&@                          ",
"                   6&&#           6&&#                          ",
"                   /&&2.          5&&5                          ",
"                   ]7&&:         .8&&5                          ",
"                    9&&/        ]{&&&$                          ",
"                    &&&055abcd)'e&&&f.                          ",
"                    g&&&&&&&h&&&&&&(]                           ",
"                    ij&&&&&&h&&&&h#.                            ",
"                    klmfnaabco@@+.                              ",
"                      pqqp                                      ",
"                      lrrl                                      ",
"                      s&&s                                      ",
"                      $&&t=                                     ",
"                      .{&&7                                     ",
"                       )&&@                                     ",
"                       6&&#                                     ",
"                       5&&5                                     ",
"                       5&&5                                     ",
"                       5&&5                                     ",
"                       5&&5 ]/6uvw                              ",
"                       5&&xyr&&&&1=                             ",
"                       5&&h&&&&&&&_                             ",
"                       5&&h&&z#A9&B                             ",
"                       5&&x+CD  ]E]                             ",
"                       5&&5                                     ",
"                       u&&u    ]E]                              ",
"                       F&&Gig&97&B                              ",
"                       u&&x1&&&&&_                              ",
"                       5&&n;&&&&;=                              ",
"                       5&&#wHI/:.                               ",
"                       $&&~:^Fu5$.                              ",
"                       .*&&&&&&&&^                              ",
"                        =;&&&&&&&^                              ",
"                         .+[JFAKi.                              ",
"                                                                ",
"                                                                ",
"                                                                ",
"                                                                ",
"                                                                ",
"                                                                ",
"                                                                "};
